<svg xmlns="http://www.w3.org/2000/svg" width="150" height="150" viewBox="0 0 150 150">
  <defs>
    <style>
      .cls-1 {
        fill: #9c2de0;
        fill-rule: evenodd;
      }
    </style>
  </defs>
  <path id="Forme_1" data-name="Forme 1" class="cls-1" d="M63,144L32,74.063,58,20.112H94l24,52.952L87,144H78V87.052s14.416,3.812,15-9.991S79.058,64.672,78,66.071s-6.95,2.175-7,8.992S71,144,71,144H63ZM61,16.116s26.895,0.046,30,0,2-6.994,2-6.994a3.246,3.246,0,0,0-3-3c-2.851-.286-29,0-29,0a2.856,2.856,0,0,0-2,3C59.19,11.494,58.337,16.116,61,16.116Z"/>
</svg>
