<?xml version="1.0" encoding="UTF-8" standalone="no"?>
<svg
   xmlns:dc="http://purl.org/dc/elements/1.1/"
   xmlns:cc="http://creativecommons.org/ns#"
   xmlns:rdf="http://www.w3.org/1999/02/22-rdf-syntax-ns#"
   xmlns:svg="http://www.w3.org/2000/svg"
   xmlns="http://www.w3.org/2000/svg"
   xmlns:sodipodi="http://sodipodi.sourceforge.net/DTD/sodipodi-0.dtd"
   xmlns:inkscape="http://www.inkscape.org/namespaces/inkscape"
   inkscape:version="1.0 (4035a4fb49, 2020-05-01)"
   sodipodi:docname="fiverr_logo.svg"
   xml:space="preserve"
   viewBox="0 0 512 512"
   version="1.1"
   id="Layer_1"
   enable-background="new 0 0 512 512"><metadata
     id="metadata26"><rdf:RDF><cc:Work
         rdf:about=""><dc:format>image/svg+xml</dc:format><dc:type
           rdf:resource="http://purl.org/dc/dcmitype/StillImage" /></cc:Work></rdf:RDF></metadata><defs
     id="defs24" /><sodipodi:namedview
     inkscape:current-layer="Layer_1"
     inkscape:window-maximized="1"
     inkscape:window-y="-9"
     inkscape:window-x="69"
     inkscape:cy="256"
     inkscape:cx="256"
     inkscape:zoom="1.6621094"
     showgrid="false"
     id="namedview22"
     inkscape:window-height="1411"
     inkscape:window-width="2482"
     inkscape:pageshadow="2"
     inkscape:pageopacity="0"
     guidetolerance="10"
     gridtolerance="10"
     objecttolerance="10"
     borderopacity="1"
     bordercolor="#666666"
     pagecolor="#ffffff" /><path
     id="logo"
     fill="#FFFFFF"
     d="M297,137c0,17,13.8,30.8,31,30.8c17,0,30.8-13.8,30.8-30.8c0-17.2-13.8-31-30.8-31  C310.8,106,297,119.8,297,137L297,137z M223.5,111.1c-40,0-65.9,23.8-71,48.2c-0.5,2.9-1,5.8-1,8.7v22.8h-26.9v45.3h26.9v103h-26.9  V386c39,0,78.1,0,117.1,0v-46.8h-27.2v-103h81.9v103h-26.4V386c39,0,78.3,0,117.3,0v-46.8h-27.9V190.8h-145v-13.6  c0-11.2,10.9-17.9,20.1-17.9h22.5v-48.2H223.5z" /></svg>
